<?xml version="1.0" encoding="UTF-8" standalone="no"?>
<svg width="500" height="400" viewBox="0 0 500 400" fill="none" xmlns="http://www.w3.org/2000/svg">
  <!-- Background -->
  <rect width="500" height="400" fill="white"/>
  
  <!-- WiFi Icon -->
  <g transform="translate(200, 70)">
    <circle cx="50" cy="50" r="50" fill="#2B3990"/>
    <path d="M50 30C61.046 30 70 38.954 70 50C70 61.046 61.046 70 50 70C38.954 70 30 61.046 30 50C30 38.954 38.954 30 50 30Z" fill="white"/>
    <path d="M64.5 35.5C60.5 31.5 55.5 29 50 29C44.5 29 39.5 31.5 35.5 35.5" stroke="white" stroke-width="4" stroke-linecap="round"/>
    <path d="M73 27C66.5 20.5 58.5 17 50 17C41.5 17 33.5 20.5 27 27" stroke="white" stroke-width="4" stroke-linecap="round"/>
    <path d="M81.5 18.5C72.5 9.5 62 5 50 5C38 5 27.5 9.5 18.5 18.5" stroke="white" stroke-width="4" stroke-linecap="round"/>
    <line x1="50" y1="77" x2="50" y2="85" stroke="white" stroke-width="4" stroke-linecap="round"/>
  </g>
  
  <!-- Text -->
  <text x="250" y="200" font-family="Arial, sans-serif" font-size="24" font-weight="bold" text-anchor="middle" fill="black">THIS WEBSITE HAS BEEN LOCKED</text>
  <text x="250" y="230" font-family="Arial, sans-serif" font-size="24" font-weight="bold" text-anchor="middle" fill="black">BY THE WEBSITE OWNER</text>
  <text x="250" y="280" font-family="Arial, sans-serif" font-size="24" font-weight="normal" text-anchor="middle" fill="black">OR THE WEBSITE IS DOWN FOR MAINTENANCE</text>
  <text x="250" y="330" font-family="Arial, sans-serif" font-size="18" font-weight="normal" text-anchor="middle" fill="black">CONTACT THE OWNER FOR MORE INFORMATION</text>
</svg>