<?xml version="1.0" encoding="UTF-8" standalone="no"?>
<svg width="800" height="600" viewBox="0 0 800 600" fill="none" xmlns="http://www.w3.org/2000/svg">
  <!-- Background -->
  <rect width="800" height="600" fill="white"/>
  
  <!-- WiFi Icon -->
  <g transform="translate(350, 80)">
    <circle cx="50" cy="50" r="50" fill="#2B3990"/>
    <!-- WiFi Signal Arcs -->
    <path d="M50 85C52.7614 85 55 82.7614 55 80C55 77.2386 52.7614 75 50 75C47.2386 75 45 77.2386 45 80C45 82.7614 47.2386 85 50 85Z" fill="white"/>
    <path d="M50 70C59.665 70 67.5 62.165 67.5 52.5C67.5 42.835 59.665 35 50 35C40.335 35 32.5 42.835 32.5 52.5" stroke="white" stroke-width="6" stroke-linecap="round"/>
    <path d="M50 55C66.0163 55 79 42.0163 79 26C79 25.448 78.9891 24.8991 78.9676 24.3536" stroke="white" stroke-width="6" stroke-linecap="round"/>
    <path d="M21.0324 24.3536C21.0109 24.8991 21 25.448 21 26C21 42.0163 33.9837 55 50 55" stroke="white" stroke-width="6" stroke-linecap="round"/>
    <path d="M28.5 15C34.12 10.42 41.7 7.5 50 7.5C58.3 7.5 65.88 10.42 71.5 15" stroke="white" stroke-width="6" stroke-linecap="round"/>
  </g>
  
  <!-- Text -->
  <text x="400" y="250" font-family="Arial, sans-serif" font-size="36" font-weight="bold" text-anchor="middle" fill="black">THIS WEBSITE HAS BEEN LOCKED</text>
  <text x="400" y="300" font-family="Arial, sans-serif" font-size="36" font-weight="bold" text-anchor="middle" fill="black">BY THE WEBSITE OWNER</text>
  <text x="400" y="380" font-family="Arial, sans-serif" font-size="30" font-weight="normal" text-anchor="middle" fill="black">OR THE WEBSITE IS DOWN FOR MAINTENANCE</text>
  <text x="400" y="450" font-family="Arial, sans-serif" font-size="24" font-weight="normal" text-anchor="middle" fill="black">CONTACT THE OWNER FOR MORE INFORMATION</text>
</svg>